<svg width="148" height="30" viewBox="0 0 148 30" fill="none" xmlns="http://www.w3.org/2000/svg">
<path d="M37.8673 25.2455C36.7771 25.2455 35.792 25.1273 34.9251 24.8777C34.0582 24.6282 33.3226 24.2867 32.7053 23.827C32.088 23.3804 31.6151 22.8287 31.2605 22.1982C30.9058 21.5678 30.7088 20.8716 30.6562 20.1229H34.8463C34.9776 20.8453 35.306 21.3839 35.8183 21.7648C36.3305 22.1457 37.0267 22.3296 37.8936 22.3296C38.6816 22.3296 39.299 22.1851 39.7324 21.883C40.1659 21.5809 40.3892 21.1606 40.3892 20.6089C40.3892 20.2674 40.2841 19.9916 40.0739 19.7946C39.8638 19.5844 39.588 19.4136 39.2202 19.2823C38.8655 19.1509 38.4452 19.0459 37.9855 18.9539C37.5258 18.8751 37.0267 18.7832 36.5013 18.6912C35.8182 18.5599 35.1615 18.4023 34.5179 18.2446C33.8743 18.0739 33.2964 17.8243 32.7972 17.4828C32.285 17.1413 31.8778 16.6947 31.5626 16.1562C31.2473 15.6045 31.0897 14.8953 31.0897 14.0021C31.0897 13.2271 31.2605 12.5441 31.5888 11.9662C31.9172 11.3882 32.3638 10.8891 32.9286 10.4951C33.4934 10.101 34.1633 9.79893 34.9382 9.60191C35.7132 9.40488 36.5407 9.2998 37.4338 9.2998C39.5223 9.2998 41.1116 9.70698 42.1887 10.5345C43.2657 11.3488 43.9093 12.4259 44.1063 13.7394H39.982C39.693 12.6623 38.8524 12.1238 37.4338 12.1238C36.7508 12.1238 36.2123 12.2551 35.8051 12.5178C35.3979 12.7805 35.2009 13.1615 35.2009 13.6474C35.2009 13.9364 35.2929 14.1597 35.4899 14.3436C35.6738 14.5275 35.9365 14.672 36.278 14.777C36.6195 14.8953 37.0135 14.9872 37.4601 15.066C37.9067 15.1448 38.3927 15.2236 38.9049 15.3156C39.588 15.4338 40.2578 15.5783 40.9408 15.749C41.6239 15.9329 42.2281 16.1956 42.7797 16.5502C43.3314 16.9049 43.778 17.3909 44.1195 17.9819C44.4741 18.573 44.6449 19.348 44.6449 20.2805C44.6449 21.0949 44.4741 21.8042 44.1326 22.4347C43.7911 23.052 43.3183 23.5774 42.7141 23.9846C42.1098 24.4049 41.3874 24.707 40.5599 24.9171C39.7587 25.1404 38.8524 25.2455 37.8673 25.2455Z" fill="#100F15"/>
<path d="M56.0845 24.7725V22.6184H56.0056C55.454 23.4984 54.8235 24.1552 54.1142 24.5755C53.3918 24.9958 52.5249 25.1928 51.4872 25.1928C49.7666 25.1928 48.4662 24.6937 47.5599 23.6823C46.6536 22.6709 46.207 21.3443 46.207 19.6762V9.71997H50.6466V18.8224C50.6466 19.6762 50.8436 20.3198 51.2508 20.7795C51.658 21.2261 52.2491 21.4625 53.0503 21.4625C53.9566 21.4625 54.6659 21.1604 55.165 20.5562C55.6773 19.952 55.9268 19.1771 55.9268 18.2314V9.71997H60.3139V24.7725H56.0845Z" fill="#100F15"/>
<path d="M66.9474 12.4127H67.0262C67.5122 11.3619 68.1033 10.6001 68.7732 10.1535C69.4562 9.70689 70.2574 9.47046 71.2031 9.47046C71.6497 9.47046 71.965 9.50986 72.1357 9.58867V13.4635H72.0175C71.7023 13.4109 71.387 13.3846 71.0849 13.3846C69.8765 13.3715 68.9177 13.7261 68.1821 14.4748C67.4597 15.2235 67.0919 16.3268 67.0919 17.798V24.7857H62.6523V9.72002H66.9212V12.4127H66.9474Z" fill="#100F15"/>
<path d="M80.6609 25.2192C79.4394 25.2192 78.336 25.0222 77.3509 24.615C76.3658 24.2079 75.5383 23.6431 74.8422 22.9338C74.1591 22.2114 73.6206 21.3839 73.2528 20.4119C72.8851 19.453 72.7012 18.4023 72.7012 17.2727C72.7012 16.1431 72.8851 15.0923 73.266 14.1203C73.6469 13.1483 74.1723 12.3077 74.8553 11.5853C75.5383 10.8629 76.3395 10.3112 77.2852 9.90401C78.231 9.49683 79.2686 9.2998 80.4245 9.2998C81.5015 9.2998 82.4604 9.47056 83.3273 9.81206C84.181 10.1536 84.9429 10.6264 85.5996 11.2306C86.4534 12.0581 87.0707 13.0826 87.4648 14.3173C87.8588 15.552 88.0427 16.9049 88.0296 18.3891H77.0619C77.2064 19.5187 77.5873 20.4119 78.1915 21.0424C78.7957 21.686 79.6364 22.0012 80.7134 22.0012C81.4096 22.0012 81.9875 21.8699 82.421 21.6203C82.8676 21.3707 83.2091 21.003 83.4586 20.5301H87.7537C87.5698 21.1868 87.2677 21.8042 86.8606 22.3821C86.4534 22.96 85.9543 23.4592 85.3632 23.8795C84.7721 24.2998 84.076 24.6282 83.2879 24.8646C82.4998 25.101 81.6197 25.2192 80.6609 25.2192ZM80.4376 12.439C79.4131 12.439 78.6513 12.7411 78.1127 13.3453C77.5873 13.9495 77.2458 14.7639 77.0882 15.8016H83.5112C83.4324 14.7508 83.1303 13.9233 82.5786 13.3322C82.0401 12.728 81.3176 12.439 80.4376 12.439Z" fill="#100F15"/>
<path d="M96.698 30.0002C94.6226 30.0002 92.9545 29.5931 91.6936 28.7656C90.4326 27.9512 89.6839 26.7953 89.4606 25.298H93.782C93.9265 25.7445 94.2286 26.1123 94.6752 26.4013C95.1218 26.6903 95.7785 26.8216 96.6454 26.8216C97.6962 26.8216 98.4843 26.572 99.0097 26.0598C99.5219 25.5475 99.7846 24.8382 99.7846 23.9057V23.5904C99.7846 22.7761 99.8109 22.1193 99.8634 21.6071H99.7452C98.8521 23.0782 97.4992 23.8137 95.6734 23.8137C94.8065 23.8137 93.979 23.6561 93.1909 23.3409C92.4029 23.0256 91.7067 22.5659 91.1025 21.9486C90.4983 21.3312 90.0123 20.5825 89.6577 19.7025C89.303 18.8225 89.1191 17.8111 89.1191 16.6815C89.1191 15.5913 89.2768 14.5799 89.592 13.6736C89.9072 12.7542 90.3407 11.9792 90.9055 11.3225C91.4703 10.6657 92.1402 10.1666 92.9151 9.81197C93.6901 9.45733 94.5307 9.27344 95.4633 9.27344C96.4878 9.27344 97.3547 9.45733 98.064 9.81197C98.7864 10.1666 99.3512 10.7708 99.7846 11.6246H99.8372V9.72002H104.08V23.4328C104.08 24.5624 103.909 25.5344 103.554 26.3356C103.2 27.1368 102.727 27.8067 102.123 28.3584C101.466 28.9232 100.665 29.3435 99.7452 29.6062C98.8258 29.8689 97.8144 30.0002 96.698 30.0002ZM96.6717 20.4906C97.2365 20.4906 97.7225 20.3855 98.1296 20.1885C98.5368 19.9915 98.8783 19.7156 99.1542 19.361C99.43 19.0064 99.627 18.586 99.7452 18.1132C99.8635 17.6403 99.9291 17.1281 99.9291 16.5633C99.9291 15.4468 99.6533 14.5274 99.1148 13.7787C98.5631 13.03 97.7487 12.6622 96.6585 12.6622C95.6734 12.6622 94.8985 13.0169 94.3337 13.7262C93.7689 14.4354 93.4799 15.3943 93.4799 16.6027C93.4799 17.7848 93.7689 18.7437 94.3337 19.4398C94.8853 20.1491 95.6734 20.4906 96.6717 20.4906Z" fill="#100F15"/>
<path d="M106.457 3.73047H110.949V7.60525H106.457V3.73047ZM106.483 9.71996H110.923V24.7725H106.483V9.71996Z" fill="#100F15"/>
<path d="M112.395 9.71998H114.654V8.4459C114.654 6.85658 115.074 5.68758 115.928 4.91263C116.414 4.47918 117.044 4.16394 117.806 3.98005C118.568 3.79616 119.435 3.70422 120.394 3.73049C120.696 3.73049 120.998 3.74362 121.3 3.75676C121.602 3.76989 121.917 3.8093 122.233 3.83557V7.00107C121.668 6.98793 121.182 6.98793 120.788 7.00107C120.394 7.0142 120.065 7.09301 119.816 7.21122C119.566 7.32944 119.382 7.51333 119.264 7.76289C119.146 8.01245 119.093 8.34082 119.093 8.748V9.71998H122.233V12.6096H119.093V24.7725H114.654V12.6096H112.395V9.71998Z" fill="#100F15"/>
<path d="M123.033 9.71995H125.292V4.9126H129.64V9.71995H132.582V12.5439H129.64V20.0045C129.64 20.5693 129.785 20.9503 130.073 21.1473C130.362 21.3443 130.77 21.4494 131.308 21.4494C131.453 21.4494 131.623 21.4494 131.82 21.4362C132.004 21.4231 132.175 21.41 132.333 21.3968H132.556V24.7068C132.306 24.7462 131.965 24.7856 131.531 24.8513C131.098 24.9038 130.586 24.9301 129.982 24.9301C129.285 24.9301 128.642 24.8644 128.077 24.7462C127.499 24.628 127.013 24.4047 126.593 24.0895C126.172 23.7742 125.857 23.3671 125.634 22.8679C125.411 22.3688 125.292 21.7383 125.292 20.9634V12.5439H123.033V9.71995Z" fill="#100F15"/>
<path d="M140.871 25.2455C139.781 25.2455 138.796 25.1273 137.929 24.8777C137.062 24.6282 136.327 24.2867 135.709 23.827C135.092 23.3804 134.619 22.8287 134.264 22.1982C133.91 21.5678 133.713 20.8716 133.66 20.1229H137.85C137.982 20.8453 138.31 21.3839 138.822 21.7648C139.334 22.1457 140.031 22.3296 140.897 22.3296C141.686 22.3296 142.303 22.1851 142.736 21.883C143.17 21.5809 143.393 21.1606 143.393 20.6089C143.393 20.2674 143.288 19.9916 143.078 19.7946C142.868 19.5844 142.592 19.4136 142.224 19.2823C141.869 19.1509 141.449 19.0459 140.989 18.9539C140.53 18.8751 140.031 18.7832 139.505 18.6912C138.822 18.5599 138.165 18.4023 137.522 18.2446C136.878 18.0739 136.3 17.8243 135.801 17.4828C135.289 17.1413 134.882 16.6947 134.566 16.1562C134.251 15.6045 134.094 14.8953 134.094 14.0021C134.094 13.2271 134.264 12.5441 134.593 11.9662C134.921 11.3882 135.368 10.8891 135.932 10.4951C136.497 10.101 137.167 9.79893 137.942 9.60191C138.717 9.40488 139.545 9.2998 140.438 9.2998C142.526 9.2998 144.116 9.70698 145.193 10.5345C146.27 11.3488 146.913 12.4259 147.11 13.7394H142.986C142.697 12.6623 141.856 12.1238 140.438 12.1238C139.755 12.1238 139.216 12.2551 138.809 12.5178C138.402 12.7805 138.205 13.1615 138.205 13.6474C138.205 13.9364 138.297 14.1597 138.494 14.3436C138.678 14.5275 138.94 14.672 139.282 14.777C139.623 14.8953 140.017 14.9872 140.464 15.066C140.911 15.1448 141.397 15.2236 141.909 15.3156C142.592 15.4338 143.262 15.5783 143.945 15.749C144.628 15.9329 145.232 16.1956 145.784 16.5502C146.335 16.9049 146.782 17.3909 147.123 17.9819C147.478 18.573 147.649 19.348 147.649 20.2805C147.649 21.0949 147.478 21.8042 147.137 22.4347C146.795 23.052 146.322 23.5774 145.718 23.9846C145.114 24.4049 144.391 24.707 143.564 24.9171C142.763 25.1404 141.856 25.2455 140.871 25.2455Z" fill="#100F15"/>
<path d="M16.3923 6.92207C17.2329 6.42294 17.9422 5.89755 18.3625 5.47723C19.5972 4.22942 19.5972 2.19352 18.3625 0.945709C17.7715 0.328371 16.9702 0 16.1296 0C15.289 0 14.4877 0.328371 13.8835 0.932575C12.7802 2.04904 11.6769 4.11121 11.0333 5.84501C10.3897 4.09807 9.28634 2.0359 8.18301 0.932575C7.59195 0.328371 6.79072 0 5.95009 0C5.09632 0 4.30823 0.328371 3.70403 0.932575C2.46935 2.18039 2.46935 4.21629 3.70403 5.4641C4.12434 5.88441 4.84676 6.40981 5.67426 6.90893H0V26.4667H14.5534C13.7653 25.4685 11.7294 25.2189 9.40456 24.7723C5.59545 24.0499 1.74694 23.0911 1.74694 18.113C1.74694 15.88 2.78459 14.1856 4.47899 13.0692C6.09457 12.0053 8.28809 11.4536 10.7312 11.4536C13.5683 11.4536 15.7356 12.0447 17.2723 13.0692C18.9536 14.1856 19.8993 15.8144 20.1883 17.7583H14.3301C13.9361 16.2347 12.7277 15.4729 10.718 15.4729C8.78722 15.4729 7.55254 16.2741 7.55254 17.6401C7.55254 19.2426 9.87741 19.479 12.8065 20.0044C16.4711 20.6611 20.5955 21.62 20.9107 26.4667H22.0534V6.92207H16.3923ZM14.9212 2.20666C15.2364 1.89142 15.6567 1.70753 16.1033 1.70753C16.5499 1.70753 16.9702 1.87828 17.2855 2.20666C17.9422 2.8634 17.9422 3.95359 17.2855 4.61033C16.6156 5.29334 14.5403 6.42294 13.4632 6.42294C13.2399 6.42294 13.1743 6.3704 13.1743 6.3704C12.8196 5.97636 13.8704 3.27058 14.9212 2.20666ZM4.96497 2.20666C5.28021 1.89142 5.70053 1.70753 6.14711 1.70753C6.5937 1.70753 7.01401 1.87828 7.32925 2.20666C8.38004 3.27058 9.43083 5.98949 9.07618 6.3704C9.07618 6.3704 9.01051 6.42294 8.78722 6.42294C7.69703 6.42294 5.63485 5.29334 4.96497 4.61033C4.30823 3.94046 4.30823 2.8634 4.96497 2.20666Z" fill="#100F15"/>
</svg>
